<mxfile host="app.diagrams.net" modified="2024-08-19T00:09:37.218Z" agent="Mozilla/5.0 (Windows NT 10.0; Win64; x64) AppleWebKit/537.36 (KHTML, like Gecko) Chrome/127.0.0.0 Safari/537.36" etag="pHMSqyjbR5fp1P7tSKDl" version="24.6.2" type="google">
  <diagram name="Diagrama de blocos" id="oh575O3D4EwmFB1Y6Epg">
    <mxGraphModel dx="1290" dy="522" grid="1" gridSize="10" guides="1" tooltips="1" connect="1" arrows="1" fold="1" page="1" pageScale="1" pageWidth="827" pageHeight="1169" math="0" shadow="0">
      <root>
        <mxCell id="0" />
        <mxCell id="1" parent="0" />
        <mxCell id="Hxf--vFEC0rzbbBocpbd-23" value="STM32 G474RE" style="rounded=0;whiteSpace=wrap;html=1;" parent="1" vertex="1">
          <mxGeometry x="154" y="160" width="529" height="670" as="geometry" />
        </mxCell>
        <mxCell id="Hxf--vFEC0rzbbBocpbd-5" value="LCD 2x16" style="rounded=0;whiteSpace=wrap;html=1;" parent="1" vertex="1">
          <mxGeometry x="727" y="165" width="89" height="60" as="geometry" />
        </mxCell>
        <mxCell id="Hxf--vFEC0rzbbBocpbd-6" value="Teclado Matricial" style="rounded=0;whiteSpace=wrap;html=1;" parent="1" vertex="1">
          <mxGeometry x="9" y="190" width="78" height="490" as="geometry" />
        </mxCell>
        <mxCell id="Hxf--vFEC0rzbbBocpbd-7" value="Pushbottoms" style="rounded=0;whiteSpace=wrap;html=1;" parent="1" vertex="1">
          <mxGeometry x="310" y="880" width="120" height="68" as="geometry" />
        </mxCell>
        <mxCell id="Hxf--vFEC0rzbbBocpbd-11" value="I2C" style="text;html=1;align=center;verticalAlign=middle;resizable=0;points=[];autosize=1;strokeColor=none;fillColor=none;shadow=0;" parent="1" vertex="1">
          <mxGeometry x="607" y="137" width="40" height="30" as="geometry" />
        </mxCell>
        <mxCell id="zvLF1-X7iXJekeEMlv25-16" value="" style="edgeStyle=orthogonalEdgeStyle;rounded=0;orthogonalLoop=1;jettySize=auto;html=1;" parent="1" source="Hxf--vFEC0rzbbBocpbd-7" target="Hxf--vFEC0rzbbBocpbd-19" edge="1">
          <mxGeometry relative="1" as="geometry" />
        </mxCell>
        <mxCell id="Hxf--vFEC0rzbbBocpbd-19" value="GPIO&lt;div&gt;PC1-4&lt;/div&gt;&lt;div&gt;PB0&lt;/div&gt;" style="rounded=0;whiteSpace=wrap;html=1;" parent="1" vertex="1">
          <mxGeometry x="320" y="762" width="100" height="68" as="geometry" />
        </mxCell>
        <mxCell id="Hxf--vFEC0rzbbBocpbd-20" value="GPIOA&lt;div&gt;PA4&lt;/div&gt;" style="rounded=0;whiteSpace=wrap;html=1;" parent="1" vertex="1">
          <mxGeometry x="573" y="239" width="110" height="60" as="geometry" />
        </mxCell>
        <mxCell id="kMZmxkDcSjS4BPZ4Vrbq-3" value="" style="edgeStyle=orthogonalEdgeStyle;rounded=0;orthogonalLoop=1;jettySize=auto;html=1;" parent="1" source="Hxf--vFEC0rzbbBocpbd-20" target="Hxf--vFEC0rzbbBocpbd-21" edge="1">
          <mxGeometry relative="1" as="geometry" />
        </mxCell>
        <mxCell id="Hxf--vFEC0rzbbBocpbd-21" value="LED&lt;span style=&quot;background-color: initial;&quot;&gt;&amp;nbsp;(Yellow)&lt;/span&gt;" style="rounded=0;whiteSpace=wrap;html=1;" parent="1" vertex="1">
          <mxGeometry x="727" y="239" width="89" height="60" as="geometry" />
        </mxCell>
        <mxCell id="Hxf--vFEC0rzbbBocpbd-24" value="" style="endArrow=classic;html=1;rounded=0;entryX=0.008;entryY=0.492;entryDx=0;entryDy=0;entryPerimeter=0;" parent="1" target="Hxf--vFEC0rzbbBocpbd-45" edge="1">
          <mxGeometry width="50" height="50" relative="1" as="geometry">
            <mxPoint x="683" y="595.5" as="sourcePoint" />
            <mxPoint x="743" y="595.5" as="targetPoint" />
          </mxGeometry>
        </mxCell>
        <mxCell id="Hxf--vFEC0rzbbBocpbd-25" value="PWM" style="rounded=0;whiteSpace=wrap;html=1;" parent="1" vertex="1">
          <mxGeometry x="573" y="566" width="110" height="60" as="geometry" />
        </mxCell>
        <mxCell id="QB2hvoBfhgBaOtBGEcdr-17" value="" style="edgeStyle=orthogonalEdgeStyle;rounded=0;orthogonalLoop=1;jettySize=auto;html=1;" parent="1" source="zvLF1-X7iXJekeEMlv25-24" target="Hxf--vFEC0rzbbBocpbd-27" edge="1">
          <mxGeometry relative="1" as="geometry" />
        </mxCell>
        <mxCell id="Hxf--vFEC0rzbbBocpbd-27" value="ADC" style="rounded=0;whiteSpace=wrap;html=1;" parent="1" vertex="1">
          <mxGeometry x="180" y="762" width="100" height="68" as="geometry" />
        </mxCell>
        <mxCell id="Hxf--vFEC0rzbbBocpbd-28" value="Heater" style="rounded=0;whiteSpace=wrap;html=1;" parent="1" vertex="1">
          <mxGeometry x="727" y="629" width="89" height="60" as="geometry" />
        </mxCell>
        <mxCell id="Hxf--vFEC0rzbbBocpbd-29" value="" style="endArrow=classic;html=1;rounded=0;entryX=0;entryY=0.5;entryDx=0;entryDy=0;" parent="1" target="Hxf--vFEC0rzbbBocpbd-28" edge="1">
          <mxGeometry width="50" height="50" relative="1" as="geometry">
            <mxPoint x="683" y="658.5" as="sourcePoint" />
            <mxPoint x="743" y="658.5" as="targetPoint" />
          </mxGeometry>
        </mxCell>
        <mxCell id="Hxf--vFEC0rzbbBocpbd-30" value="PWM" style="rounded=0;whiteSpace=wrap;html=1;" parent="1" vertex="1">
          <mxGeometry x="573" y="629" width="110" height="60" as="geometry" />
        </mxCell>
        <mxCell id="Hxf--vFEC0rzbbBocpbd-34" value="Serial (UART)&lt;div&gt;USB&lt;/div&gt;" style="rounded=0;whiteSpace=wrap;html=1;" parent="1" vertex="1">
          <mxGeometry x="370" y="160" width="100" height="60" as="geometry" />
        </mxCell>
        <mxCell id="Hxf--vFEC0rzbbBocpbd-35" value="Computador" style="rounded=0;whiteSpace=wrap;html=1;" parent="1" vertex="1">
          <mxGeometry x="360" y="40" width="120" height="60" as="geometry" />
        </mxCell>
        <mxCell id="Hxf--vFEC0rzbbBocpbd-41" value="I2C2_SCL / I2C2_CLK" style="rounded=0;whiteSpace=wrap;html=1;" parent="1" vertex="1">
          <mxGeometry x="574" y="160" width="109" height="70" as="geometry" />
        </mxCell>
        <mxCell id="Hxf--vFEC0rzbbBocpbd-42" value="Buzzer" style="rounded=0;whiteSpace=wrap;html=1;" parent="1" vertex="1">
          <mxGeometry x="727" y="692" width="89" height="60" as="geometry" />
        </mxCell>
        <mxCell id="Hxf--vFEC0rzbbBocpbd-43" value="PWM" style="rounded=0;whiteSpace=wrap;html=1;" parent="1" vertex="1">
          <mxGeometry x="573" y="692" width="110" height="60" as="geometry" />
        </mxCell>
        <mxCell id="Hxf--vFEC0rzbbBocpbd-44" value="" style="endArrow=classic;html=1;rounded=0;entryX=0;entryY=0.5;entryDx=0;entryDy=0;" parent="1" target="Hxf--vFEC0rzbbBocpbd-42" edge="1">
          <mxGeometry width="50" height="50" relative="1" as="geometry">
            <mxPoint x="683" y="721.5" as="sourcePoint" />
            <mxPoint x="743" y="721.5" as="targetPoint" />
          </mxGeometry>
        </mxCell>
        <mxCell id="Hxf--vFEC0rzbbBocpbd-45" value="Cooler" style="rounded=0;whiteSpace=wrap;html=1;" parent="1" vertex="1">
          <mxGeometry x="727" y="566" width="89" height="60" as="geometry" />
        </mxCell>
        <mxCell id="Hxf--vFEC0rzbbBocpbd-46" style="edgeStyle=orthogonalEdgeStyle;rounded=0;orthogonalLoop=1;jettySize=auto;html=1;exitX=0.5;exitY=1;exitDx=0;exitDy=0;" parent="1" edge="1">
          <mxGeometry relative="1" as="geometry">
            <mxPoint x="404.5" y="759" as="sourcePoint" />
            <mxPoint x="404.5" y="759" as="targetPoint" />
          </mxGeometry>
        </mxCell>
        <mxCell id="zvLF1-X7iXJekeEMlv25-1" value="GPIOA&lt;div&gt;PA5&lt;/div&gt;" style="rounded=0;whiteSpace=wrap;html=1;" parent="1" vertex="1">
          <mxGeometry x="573" y="302" width="110" height="60" as="geometry" />
        </mxCell>
        <mxCell id="kMZmxkDcSjS4BPZ4Vrbq-4" value="" style="edgeStyle=orthogonalEdgeStyle;rounded=0;orthogonalLoop=1;jettySize=auto;html=1;" parent="1" source="zvLF1-X7iXJekeEMlv25-1" target="zvLF1-X7iXJekeEMlv25-2" edge="1">
          <mxGeometry relative="1" as="geometry" />
        </mxCell>
        <mxCell id="zvLF1-X7iXJekeEMlv25-2" value="LED (Green)" style="rounded=0;whiteSpace=wrap;html=1;" parent="1" vertex="1">
          <mxGeometry x="727" y="302" width="89" height="60" as="geometry" />
        </mxCell>
        <mxCell id="zvLF1-X7iXJekeEMlv25-4" value="GPIOA&lt;div&gt;PB14&lt;/div&gt;" style="rounded=0;whiteSpace=wrap;html=1;" parent="1" vertex="1">
          <mxGeometry x="573" y="365" width="110" height="60" as="geometry" />
        </mxCell>
        <mxCell id="kMZmxkDcSjS4BPZ4Vrbq-5" style="edgeStyle=orthogonalEdgeStyle;rounded=0;orthogonalLoop=1;jettySize=auto;html=1;" parent="1" source="zvLF1-X7iXJekeEMlv25-4" target="zvLF1-X7iXJekeEMlv25-5" edge="1">
          <mxGeometry relative="1" as="geometry" />
        </mxCell>
        <mxCell id="zvLF1-X7iXJekeEMlv25-5" value="LED&amp;nbsp;&lt;span style=&quot;background-color: initial;&quot;&gt;(Red)&lt;/span&gt;" style="rounded=0;whiteSpace=wrap;html=1;" parent="1" vertex="1">
          <mxGeometry x="727" y="365" width="89" height="60" as="geometry" />
        </mxCell>
        <mxCell id="zvLF1-X7iXJekeEMlv25-7" value="GPIOA&lt;div&gt;PA12&lt;/div&gt;" style="rounded=0;whiteSpace=wrap;html=1;" parent="1" vertex="1">
          <mxGeometry x="573" y="428" width="110" height="60" as="geometry" />
        </mxCell>
        <mxCell id="kMZmxkDcSjS4BPZ4Vrbq-6" style="edgeStyle=orthogonalEdgeStyle;rounded=0;orthogonalLoop=1;jettySize=auto;html=1;" parent="1" source="zvLF1-X7iXJekeEMlv25-7" target="zvLF1-X7iXJekeEMlv25-8" edge="1">
          <mxGeometry relative="1" as="geometry" />
        </mxCell>
        <mxCell id="zvLF1-X7iXJekeEMlv25-8" value="LED&amp;nbsp;&lt;span style=&quot;background-color: initial;&quot;&gt;(Green 2)&lt;/span&gt;" style="rounded=0;whiteSpace=wrap;html=1;" parent="1" vertex="1">
          <mxGeometry x="727" y="428" width="89" height="60" as="geometry" />
        </mxCell>
        <mxCell id="QB2hvoBfhgBaOtBGEcdr-36" value="" style="edgeStyle=orthogonalEdgeStyle;rounded=0;orthogonalLoop=1;jettySize=auto;html=1;" parent="1" source="zvLF1-X7iXJekeEMlv25-10" target="zvLF1-X7iXJekeEMlv25-11" edge="1">
          <mxGeometry relative="1" as="geometry" />
        </mxCell>
        <mxCell id="zvLF1-X7iXJekeEMlv25-10" value="GPIOA&lt;div&gt;PB5&lt;/div&gt;" style="rounded=0;whiteSpace=wrap;html=1;" parent="1" vertex="1">
          <mxGeometry x="573" y="491" width="110" height="60" as="geometry" />
        </mxCell>
        <mxCell id="zvLF1-X7iXJekeEMlv25-11" value="LED&amp;nbsp;&lt;span style=&quot;background-color: initial;&quot;&gt;(Blue)&lt;/span&gt;" style="rounded=0;whiteSpace=wrap;html=1;" parent="1" vertex="1">
          <mxGeometry x="727" y="491" width="89" height="60" as="geometry" />
        </mxCell>
        <mxCell id="zvLF1-X7iXJekeEMlv25-24" value="Sensor de temperatura" style="rounded=0;whiteSpace=wrap;html=1;" parent="1" vertex="1">
          <mxGeometry x="170" y="880" width="120" height="68" as="geometry" />
        </mxCell>
        <mxCell id="YoK6R6WBMQCP4nlX7dxA-3" value="" style="edgeStyle=orthogonalEdgeStyle;rounded=0;orthogonalLoop=1;jettySize=auto;html=1;" parent="1" source="zvLF1-X7iXJekeEMlv25-25" target="YoK6R6WBMQCP4nlX7dxA-1" edge="1">
          <mxGeometry relative="1" as="geometry" />
        </mxCell>
        <mxCell id="zvLF1-X7iXJekeEMlv25-25" value="Tacômetro" style="rounded=0;whiteSpace=wrap;html=1;" parent="1" vertex="1">
          <mxGeometry x="727" y="762" width="93" height="68" as="geometry" />
        </mxCell>
        <mxCell id="QB2hvoBfhgBaOtBGEcdr-16" value="" style="edgeStyle=orthogonalEdgeStyle;rounded=0;orthogonalLoop=1;jettySize=auto;html=1;entryX=1;entryY=0.25;entryDx=0;entryDy=0;" parent="1" source="QB2hvoBfhgBaOtBGEcdr-1" target="Hxf--vFEC0rzbbBocpbd-6" edge="1">
          <mxGeometry relative="1" as="geometry" />
        </mxCell>
        <mxCell id="QB2hvoBfhgBaOtBGEcdr-1" value="GPIOC&lt;div&gt;Pin 7&lt;/div&gt;" style="rounded=0;whiteSpace=wrap;html=1;" parent="1" vertex="1">
          <mxGeometry x="154" y="160" width="110" height="60" as="geometry" />
        </mxCell>
        <mxCell id="QB2hvoBfhgBaOtBGEcdr-2" value="GPIOA&lt;div&gt;PA5&lt;/div&gt;" style="rounded=0;whiteSpace=wrap;html=1;" parent="1" vertex="1">
          <mxGeometry x="154" y="223" width="110" height="60" as="geometry" />
        </mxCell>
        <mxCell id="QB2hvoBfhgBaOtBGEcdr-13" value="" style="edgeStyle=orthogonalEdgeStyle;rounded=0;orthogonalLoop=1;jettySize=auto;html=1;entryX=1;entryY=0.25;entryDx=0;entryDy=0;" parent="1" source="QB2hvoBfhgBaOtBGEcdr-5" target="Hxf--vFEC0rzbbBocpbd-6" edge="1">
          <mxGeometry relative="1" as="geometry" />
        </mxCell>
        <mxCell id="QB2hvoBfhgBaOtBGEcdr-5" value="GPIOC&lt;div&gt;Pin 8&lt;/div&gt;" style="rounded=0;whiteSpace=wrap;html=1;" parent="1" vertex="1">
          <mxGeometry x="154" y="223" width="110" height="60" as="geometry" />
        </mxCell>
        <mxCell id="QB2hvoBfhgBaOtBGEcdr-14" value="" style="edgeStyle=orthogonalEdgeStyle;rounded=0;orthogonalLoop=1;jettySize=auto;html=1;entryX=1;entryY=0.25;entryDx=0;entryDy=0;" parent="1" source="QB2hvoBfhgBaOtBGEcdr-6" target="Hxf--vFEC0rzbbBocpbd-6" edge="1">
          <mxGeometry relative="1" as="geometry" />
        </mxCell>
        <mxCell id="QB2hvoBfhgBaOtBGEcdr-6" value="GPIOC&lt;div&gt;Pin 9&lt;/div&gt;" style="rounded=0;whiteSpace=wrap;html=1;" parent="1" vertex="1">
          <mxGeometry x="154" y="286" width="110" height="60" as="geometry" />
        </mxCell>
        <mxCell id="QB2hvoBfhgBaOtBGEcdr-15" value="" style="edgeStyle=orthogonalEdgeStyle;rounded=0;orthogonalLoop=1;jettySize=auto;html=1;entryX=1;entryY=0.25;entryDx=0;entryDy=0;" parent="1" source="QB2hvoBfhgBaOtBGEcdr-7" target="Hxf--vFEC0rzbbBocpbd-6" edge="1">
          <mxGeometry relative="1" as="geometry" />
        </mxCell>
        <mxCell id="QB2hvoBfhgBaOtBGEcdr-7" value="GPIOA&lt;div&gt;Pin 10&lt;/div&gt;" style="rounded=0;whiteSpace=wrap;html=1;" parent="1" vertex="1">
          <mxGeometry x="154" y="349" width="110" height="60" as="geometry" />
        </mxCell>
        <mxCell id="QB2hvoBfhgBaOtBGEcdr-26" value="" style="edgeStyle=orthogonalEdgeStyle;rounded=0;orthogonalLoop=1;jettySize=auto;html=1;exitX=1;exitY=0.75;exitDx=0;exitDy=0;" parent="1" source="Hxf--vFEC0rzbbBocpbd-6" target="QB2hvoBfhgBaOtBGEcdr-19" edge="1">
          <mxGeometry relative="1" as="geometry" />
        </mxCell>
        <mxCell id="QB2hvoBfhgBaOtBGEcdr-19" value="GPIOB&lt;div&gt;&lt;div&gt;Pin 11&lt;/div&gt;&lt;/div&gt;" style="rounded=0;whiteSpace=wrap;html=1;" parent="1" vertex="1">
          <mxGeometry x="154" y="428" width="110" height="60" as="geometry" />
        </mxCell>
        <mxCell id="QB2hvoBfhgBaOtBGEcdr-20" value="GPIOA&lt;div&gt;PA5&lt;/div&gt;" style="rounded=0;whiteSpace=wrap;html=1;" parent="1" vertex="1">
          <mxGeometry x="154" y="491" width="110" height="60" as="geometry" />
        </mxCell>
        <mxCell id="QB2hvoBfhgBaOtBGEcdr-24" value="" style="edgeStyle=orthogonalEdgeStyle;rounded=0;orthogonalLoop=1;jettySize=auto;html=1;exitX=1;exitY=0.75;exitDx=0;exitDy=0;" parent="1" source="Hxf--vFEC0rzbbBocpbd-6" target="QB2hvoBfhgBaOtBGEcdr-21" edge="1">
          <mxGeometry relative="1" as="geometry" />
        </mxCell>
        <mxCell id="QB2hvoBfhgBaOtBGEcdr-21" value="GPIOB&lt;div&gt;Pin 12&lt;/div&gt;" style="rounded=0;whiteSpace=wrap;html=1;" parent="1" vertex="1">
          <mxGeometry x="154" y="491" width="110" height="60" as="geometry" />
        </mxCell>
        <mxCell id="QB2hvoBfhgBaOtBGEcdr-27" value="" style="edgeStyle=orthogonalEdgeStyle;rounded=0;orthogonalLoop=1;jettySize=auto;html=1;exitX=1;exitY=0.75;exitDx=0;exitDy=0;" parent="1" source="Hxf--vFEC0rzbbBocpbd-6" target="QB2hvoBfhgBaOtBGEcdr-22" edge="1">
          <mxGeometry relative="1" as="geometry" />
        </mxCell>
        <mxCell id="QB2hvoBfhgBaOtBGEcdr-22" value="GPIOB&lt;div&gt;Pin 13&lt;/div&gt;" style="rounded=0;whiteSpace=wrap;html=1;" parent="1" vertex="1">
          <mxGeometry x="154" y="554" width="110" height="60" as="geometry" />
        </mxCell>
        <mxCell id="QB2hvoBfhgBaOtBGEcdr-28" value="" style="edgeStyle=orthogonalEdgeStyle;rounded=0;orthogonalLoop=1;jettySize=auto;html=1;exitX=1;exitY=0.75;exitDx=0;exitDy=0;" parent="1" source="Hxf--vFEC0rzbbBocpbd-6" target="QB2hvoBfhgBaOtBGEcdr-23" edge="1">
          <mxGeometry relative="1" as="geometry" />
        </mxCell>
        <mxCell id="QB2hvoBfhgBaOtBGEcdr-23" value="GPIOB&lt;div&gt;Pin 15&lt;/div&gt;" style="rounded=0;whiteSpace=wrap;html=1;" parent="1" vertex="1">
          <mxGeometry x="154" y="617" width="110" height="60" as="geometry" />
        </mxCell>
        <mxCell id="YoK6R6WBMQCP4nlX7dxA-1" value="PWM" style="rounded=0;whiteSpace=wrap;html=1;" parent="1" vertex="1">
          <mxGeometry x="574" y="762" width="110" height="68" as="geometry" />
        </mxCell>
        <mxCell id="HK4a7Ahogq2S8Dki3VrH-1" value="" style="endArrow=classic;startArrow=classic;html=1;rounded=0;entryX=0;entryY=0.5;entryDx=0;entryDy=0;exitX=1;exitY=0.5;exitDx=0;exitDy=0;" parent="1" source="Hxf--vFEC0rzbbBocpbd-41" target="Hxf--vFEC0rzbbBocpbd-5" edge="1">
          <mxGeometry width="50" height="50" relative="1" as="geometry">
            <mxPoint x="670" y="150" as="sourcePoint" />
            <mxPoint x="720" y="100" as="targetPoint" />
          </mxGeometry>
        </mxCell>
        <mxCell id="HK4a7Ahogq2S8Dki3VrH-2" value="" style="endArrow=classic;startArrow=classic;html=1;rounded=0;entryX=0;entryY=0.5;entryDx=0;entryDy=0;exitX=1;exitY=0.5;exitDx=0;exitDy=0;" parent="1" edge="1">
          <mxGeometry width="50" height="50" relative="1" as="geometry">
            <mxPoint x="684" y="795.5" as="sourcePoint" />
            <mxPoint x="728" y="795.5" as="targetPoint" />
          </mxGeometry>
        </mxCell>
        <mxCell id="HK4a7Ahogq2S8Dki3VrH-3" value="" style="endArrow=classic;startArrow=classic;html=1;rounded=0;entryX=0.5;entryY=1;entryDx=0;entryDy=0;exitX=0.5;exitY=0;exitDx=0;exitDy=0;" parent="1" source="Hxf--vFEC0rzbbBocpbd-34" target="Hxf--vFEC0rzbbBocpbd-35" edge="1">
          <mxGeometry width="50" height="50" relative="1" as="geometry">
            <mxPoint x="500" y="140" as="sourcePoint" />
            <mxPoint x="544" y="140" as="targetPoint" />
          </mxGeometry>
        </mxCell>
      </root>
    </mxGraphModel>
  </diagram>
</mxfile>
